<svg width="35" height="28" viewBox="0 0 35 28" fill="none" xmlns="http://www.w3.org/2000/svg">
<path d="M3.1875 23.5H5.75391V21.6133H3.21094C2.33203 21.6133 1.88672 21.168 1.88672 20.2891V4.98438C1.88672 4.10547 2.33203 3.64844 3.21094 3.64844H20.3555C21.2227 3.64844 21.6914 4.10547 21.6914 4.98438V22.1641L23.5781 21.4844V4.94922C23.5781 2.86328 22.4766 1.76172 20.3906 1.76172H3.1875C1.08984 1.76172 0 2.86328 0 4.94922V20.3242C0 22.4102 1.08984 23.5 3.1875 23.5ZM11.8125 23.5H22.5V21.6133H11.8125V23.5ZM22.5469 10.1172H26.5781C27.1758 10.1172 27.5977 10.2227 28.0781 10.75L31.7578 14.8867C32.0742 15.2383 32.2383 15.7305 32.2383 16.1523V20.2891C32.2383 21.168 31.7812 21.6133 30.9023 21.6133H29.0156V23.5H30.9375C33.0234 23.5 34.125 22.4102 34.125 20.3242V16.1875C34.125 15.0391 33.9375 14.5 33.293 13.7734L29.3086 9.27344C28.6172 8.5 27.8438 8.23047 26.6953 8.23047H22.5469V10.1172ZM25.7695 16.293H30.8789C30.8789 16.0117 30.7734 15.8594 30.5977 15.6602L27.1055 11.7344C26.8477 11.4648 26.543 11.2891 26.2148 11.2891H24.7617V15.2969C24.7617 15.918 25.1484 16.293 25.7695 16.293ZM8.69531 26.7695C10.8984 26.7695 12.6914 24.9766 12.6914 22.7617C12.6914 20.5586 10.8984 18.7656 8.69531 18.7656C6.48047 18.7656 4.67578 20.5586 4.67578 22.7617C4.67578 24.9766 6.48047 26.7695 8.69531 26.7695ZM8.69531 25.1758C7.35938 25.1758 6.26953 24.0977 6.26953 22.7617C6.26953 21.4375 7.35938 20.3477 8.69531 20.3477C10.0195 20.3477 11.0977 21.4375 11.0977 22.7617C11.0977 24.0977 10.0195 25.1758 8.69531 25.1758ZM25.582 26.7695C27.7969 26.7695 29.5781 24.9766 29.5781 22.7617C29.5781 20.5586 27.7969 18.7656 25.582 18.7656C23.3672 18.7656 21.5742 20.5586 21.5742 22.7617C21.5742 24.9766 23.3672 26.7695 25.582 26.7695ZM25.582 25.1758C24.2578 25.1758 23.168 24.0977 23.168 22.7617C23.168 21.4375 24.2578 20.3477 25.582 20.3477C26.8945 20.3477 27.9844 21.4375 27.9844 22.7617C27.9844 24.0977 26.918 25.1758 25.582 25.1758Z" fill="black"/>
</svg>
