<?xml version="1.0" encoding="UTF-8"?><svg id="Layer_2" xmlns="http://www.w3.org/2000/svg" viewBox="0 0 670.37 289.33"><defs><style>.cls-1{fill:#45ae17;}.cls-1,.cls-2,.cls-3,.cls-4,.cls-5,.cls-6,.cls-7,.cls-8{stroke-width:0px;}.cls-2{fill:#ffd100;}.cls-4{fill:#ee2e0b;}.cls-5{fill:#2300fd;}.cls-6{fill:#f0f;}.cls-7{fill:#00d5ff;}.cls-8{fill:rgba(51,51,51,0);}</style></defs><g id="Layer_1-2"><rect class="cls-8" y=".01" width="244.56" height="289.32"/><path class="cls-2" d="m93.7,144.67c-.01-20.42,16.53-36.98,36.95-37,.05,0,.1,0,.14,0h-38.4c-9.29.38-17.13-6.84-17.51-16.13-.38-9.29,6.84-17.13,16.13-17.51.04,0,.07,0,.11,0h91.61c20.44-.02,36.99-16.61,36.97-37.04C219.7,16.55,203.11,0,182.67.01h0s-90.35,0-90.35,0C42.16-.8.83,39.2.02,89.37c-.81,50.16,39.19,91.49,89.35,92.3h41.42c-20.43.05-37.04-16.47-37.09-36.9,0-.03,0-.06,0-.1Z"/><path class="cls-6" d="m104.9,252.33c-.01-20.42,16.53-36.98,36.95-37h0H63.38c-20.43,0-37,16.56-37,37s16.56,37,37,37h78.46c-20.41-.04-36.94-16.59-36.95-37Z"/><path class="cls-7" d="m153.74,107.67h-22.94c20.43,0,37,16.56,37,37s-16.56,37-37,37h23.02c9.3,0,16.83,7.55,16.82,16.85,0,9.29-7.53,16.81-16.82,16.82h-11.89c20.43,0,37,16.56,37,37s-16.56,37-37,37h11.89c50.16,0,90.82-40.68,90.81-90.85,0-50.15-40.66-90.8-90.81-90.81h-.07Z"/><path class="cls-1" d="m167.69,144.67c0-20.43-16.56-37-37-37-20.43,0-37,16.56-37,37,0,20.43,16.56,37,37,37,.03,0,.06,0,.09,0,20.4-.05,36.9-16.6,36.9-37Z"/><path class="cls-5" d="m178.87,252.33c0-20.43-16.56-37-37-37s-37,16.56-37,37c0,20.42,16.55,36.98,36.97,37,20.43.01,37.01-16.54,37.02-36.97v-.02Z"/><rect class="cls-8" x="244.56" y=".01" width="212.06" height="289.32"/><path class="cls-2" d="m419.31,206.54h-41.07v.19c-3.66,5.02-9.5,8-15.72,8.02h-17.31c-14.41,0-26.09-11.68-26.09-26.09v-39.46c-.64,20.57-17.83,36.72-38.39,36.08-19.86-.62-35.74-16.71-36.09-36.58v40.05c-.05,55.49,44.89,100.52,100.38,100.57.02,0,.05,0,.07,0h17.45c51.89-.01,93.95-42.09,93.93-93.98h0v-25.92c-.01,20.51-16.65,37.13-37.16,37.11,0,0,0,0,0,0Z"/><path class="cls-7" d="m283.76,111.47c19.85.92,35.15,17.88,35.43,37.71v-48.69c.07-14.36,11.73-25.97,26.09-25.97h17.34c10.73.03,19.41,8.72,19.42,19.45,0,20.58,16.68,37.26,37.26,37.26s37.26-16.68,37.26-37.26C456.49,42.08,414.43.04,362.54.01h-17.34c-55.5.01-100.51,44.98-100.57,100.48v48.21c.03-20.58,16.72-37.24,37.3-37.23h1.83Z"/><path class="cls-1" d="m281.96,185.96c20.38,0,36.97-16.38,37.23-36.76-.28-19.83-15.58-36.78-35.43-37.73-20.55-1.12-38.11,14.63-39.22,35.18-1.12,20.55,14.63,38.11,35.18,39.22.1,0,.2.01.3.01h1.94v.07Z"/><path class="cls-6" d="m419.22,132.22h-42.43c-20.52.01-37.15,16.66-37.14,37.18.01,20.51,16.63,37.13,37.14,37.14h1.45l-.62-31.92c-.45-22.97,17.81-41.95,40.77-42.4,0,0,.01,0,.02,0h.81Z"/><path class="cls-4" d="m419.22,132.22c-22.97,0-41.6,18.62-41.6,41.6v.81l.62,31.92h41.07c20.52,0,37.16-16.64,37.16-37.16,0-20.52-16.64-37.16-37.16-37.16h-.09Z"/><rect class="cls-8" x="456.62" y=".01" width="213.75" height="289.32"/><path class="cls-7" d="m632.94,57.2c17.13,0,32.05,11.69,36.17,28.31C661.57,36.37,619.32.07,569.6.01h-12.33c-55.56.05-100.59,45.07-100.65,100.63v69.09c-.03-1.28.03-2.56.19-3.82.51-4.87,1.98-9.59,4.32-13.89.57-1.07,1.19-2.09,1.85-3.09,1.35-1.99,2.87-3.86,4.56-5.58,1.68-1.7,3.54-3.23,5.53-4.56,5.08-3.44,10.93-5.56,17.03-6.17,1.27-.13,2.55-.2,3.82-.19h37.31v-31.78c.07-14.38,11.74-26.01,26.12-26.01h12.33c14.38,0,26.06,11.62,26.12,26.01v-6.13c-.01-20.54,16.58-37.22,37.12-37.31Z"/><path class="cls-1" d="m632.94,57.2c-20.61,0-37.31,16.7-37.31,37.31v6.58c0,20.61,16.72,37.3,37.32,37.3,20.59,0,37.29-16.7,37.3-37.3v-.45c0-5.06-.38-10.12-1.14-15.13-4.12-16.62-19.04-28.3-36.17-28.31Z"/><path class="cls-2" d="m632.94,138.4c-20.61,0-37.31-16.7-37.31-37.31v150.93c.52,20.64,17.67,36.95,38.31,36.43,19.91-.5,35.93-16.52,36.43-36.43V101.09c0,20.61-16.7,37.31-37.31,37.31h-.12Zm-176.32,31.33v82.29c0,20.61,16.71,37.31,37.32,37.3,20.6,0,37.3-16.7,37.3-37.3v-44.98h-37.31c-20.61,0-37.31-16.7-37.31-37.31Z"/><path class="cls-6" d="m531.24,207.04h19c20.61,0,37.3-16.72,37.3-37.32,0-20.59-16.7-37.29-37.3-37.3h-19v74.62Z"/><path class="cls-5" d="m531.24,169.73v-37.31h-37.31c20.61,0,37.31,16.7,37.31,37.31Z"/><path class="cls-4" d="m493.93,207.04h37.31v-37.31c0,20.61-16.7,37.31-37.31,37.31Z"/><path class="cls-3" d="m493.93,207.04c20.61,0,37.3-16.72,37.3-37.32,0-20.59-16.7-37.29-37.3-37.3-1.28,0-2.55.06-3.82.19-6.1.61-11.95,2.74-17.03,6.17-2,1.33-3.85,2.86-5.53,4.56-1.69,1.69-3.21,3.54-4.56,5.51-.66,1-1.28,2.02-1.85,3.09-2.35,4.32-3.82,9.07-4.32,13.96-.16,1.27-.22,2.55-.19,3.82,0,20.61,16.7,37.31,37.31,37.31Z"/></g></svg>