<svg width="29" height="28" viewBox="0 0 29 28" fill="none" xmlns="http://www.w3.org/2000/svg">
<path d="M3.67969 24.8008H15.8789C15.5391 24.2148 15.2812 23.582 15.1172 22.9141H3.50391C2.46094 22.9141 1.88672 22.3633 1.88672 21.2734V10.2227C1.88672 9.14453 2.46094 8.58203 3.50391 8.58203H19.8398C20.8828 8.58203 21.4688 9.14453 21.4688 10.2227V13.5508C21.8086 13.5156 22.1133 13.4922 22.4297 13.4922C22.7344 13.4922 23.0508 13.5156 23.3555 13.5508V6.85938C23.3555 4.44531 22.1367 3.22656 19.6875 3.22656H3.67969C1.23047 3.22656 0 4.43359 0 6.85938V21.168C0 23.5938 1.23047 24.8008 3.67969 24.8008ZM9.38672 12.7891H10.0781C10.4883 12.7891 10.6289 12.6719 10.6289 12.2617V11.5703C10.6289 11.1602 10.4883 11.0312 10.0781 11.0312H9.38672C8.97656 11.0312 8.83594 11.1602 8.83594 11.5703V12.2617C8.83594 12.6719 8.97656 12.7891 9.38672 12.7891ZM13.2891 12.7891H13.9688C14.3789 12.7891 14.5195 12.6719 14.5195 12.2617V11.5703C14.5195 11.1602 14.3789 11.0312 13.9688 11.0312H13.2891C12.8672 11.0312 12.7383 11.1602 12.7383 11.5703V12.2617C12.7383 12.6719 12.8672 12.7891 13.2891 12.7891ZM17.1797 12.7891H17.8711C18.2812 12.7891 18.4102 12.6719 18.4102 12.2617V11.5703C18.4102 11.1602 18.2812 11.0312 17.8711 11.0312H17.1797C16.7695 11.0312 16.6289 11.1602 16.6289 11.5703V12.2617C16.6289 12.6719 16.7695 12.7891 17.1797 12.7891ZM5.49609 16.6211H6.1875C6.59766 16.6211 6.72656 16.5039 6.72656 16.0938V15.4023C6.72656 14.9922 6.59766 14.875 6.1875 14.875H5.49609C5.08594 14.875 4.94531 14.9922 4.94531 15.4023V16.0938C4.94531 16.5039 5.08594 16.6211 5.49609 16.6211ZM9.38672 16.6211H10.0781C10.4883 16.6211 10.6289 16.5039 10.6289 16.0938V15.4023C10.6289 14.9922 10.4883 14.875 10.0781 14.875H9.38672C8.97656 14.875 8.83594 14.9922 8.83594 15.4023V16.0938C8.83594 16.5039 8.97656 16.6211 9.38672 16.6211ZM13.2891 16.6211H13.9688C14.3789 16.6211 14.5195 16.5039 14.5195 16.0938V15.4023C14.5195 14.9922 14.3789 14.875 13.9688 14.875H13.2891C12.8672 14.875 12.7383 14.9922 12.7383 15.4023V16.0938C12.7383 16.5039 12.8672 16.6211 13.2891 16.6211ZM5.49609 20.4648H6.1875C6.59766 20.4648 6.72656 20.3359 6.72656 19.9258V19.2344C6.72656 18.8242 6.59766 18.707 6.1875 18.707H5.49609C5.08594 18.707 4.94531 18.8242 4.94531 19.2344V19.9258C4.94531 20.3359 5.08594 20.4648 5.49609 20.4648ZM9.38672 20.4648H10.0781C10.4883 20.4648 10.6289 20.3359 10.6289 19.9258V19.2344C10.6289 18.8242 10.4883 18.707 10.0781 18.707H9.38672C8.97656 18.707 8.83594 18.8242 8.83594 19.2344V19.9258C8.83594 20.3359 8.97656 20.4648 9.38672 20.4648ZM13.2891 20.4648H13.9688C14.3789 20.4648 14.5195 20.3359 14.5195 19.9258V19.2344C14.5195 18.8242 14.3789 18.707 13.9688 18.707H13.2891C12.8672 18.707 12.7383 18.8242 12.7383 19.2344V19.9258C12.7383 20.3359 12.8672 20.4648 13.2891 20.4648ZM22.4297 27.0039C25.6523 27.0039 28.3828 24.3086 28.3828 21.0508C28.3828 17.7812 25.6875 15.0977 22.4297 15.0977C19.1602 15.0977 16.4766 17.793 16.4766 21.0508C16.4766 24.332 19.1602 27.0039 22.4297 27.0039ZM19.6523 21.9648C19.2422 21.9648 18.9141 21.6367 18.9141 21.2383C18.9141 20.8516 19.2539 20.5234 19.6523 20.5234H21.7617V17.582C21.7617 17.1953 22.0898 16.8789 22.4883 16.8789C22.8867 16.8789 23.2148 17.1953 23.2148 17.582V21.2383C23.2148 21.6484 22.8984 21.9648 22.4883 21.9648H19.6523Z" fill="black"/>
</svg>
